<svg width="111" height="57" viewBox="0 0 111 57" fill="none" xmlns="http://www.w3.org/2000/svg">
<path d="M87.2946 52.6624H90.2916V42.3157C90.2916 39.0196 92.0553 36.5661 95.6936 36.5661C96.1895 36.527 96.6878 36.5963 97.1544 36.7692C97.621 36.9422 98.0447 37.2148 98.3964 37.5681C98.748 37.9214 99.0193 38.3471 99.1915 38.8159C99.3636 39.2847 99.4326 39.7854 99.3936 40.2835V52.6748H102.366V40.6057C102.366 36.6776 100.886 33.9144 96.0883 33.9144C94.8888 33.8507 93.6959 34.1301 92.6481 34.7201C91.6003 35.3101 90.7404 36.1865 90.1683 37.2476H90.0943V34.3357H87.2946V52.6624ZM69.5716 43.5176C69.5716 39.0568 72.1123 36.5661 75.245 36.5661C78.3776 36.5661 80.9306 39.0444 80.9306 43.5176C80.9306 47.9909 78.39 50.4196 75.2326 50.4196C72.0753 50.4196 69.5593 47.9413 69.5593 43.5176H69.5716ZM66.3896 43.5176C66.3896 48.8707 69.4483 53.0837 75.2326 53.0837C81.017 53.0837 84.088 48.8707 84.088 43.5176C84.088 38.1646 81.0293 33.9144 75.2326 33.9144C69.436 33.9144 66.3896 38.1274 66.3896 43.5176ZM65.514 34.3357H62.3936L57.4233 49.5646H57.3493L52.231 34.3357H48.8886L55.6596 52.6624H58.8663L65.514 34.3357ZM48.5063 50.2461C48.2119 50.363 47.8979 50.4219 47.5813 50.4196C46.6316 50.4196 46.6316 49.7876 46.6316 48.375V38.9452C46.6316 34.6579 43.0673 33.9144 39.7866 33.9144C35.729 33.9144 32.2386 35.5129 32.066 40.0481H35.063C35.211 37.3468 37.0733 36.5661 39.614 36.5661C41.5133 36.5661 43.6716 36.9998 43.6716 39.6144C43.6716 41.882 40.8473 41.6713 37.505 42.3157C34.4093 42.9105 31.3383 43.8026 31.3383 47.9413C31.3383 51.6587 34.0516 53.0837 37.3693 53.0837C38.5818 53.1249 39.7879 52.8912 40.8982 52.4C42.0084 51.9087 42.9943 51.1726 43.7826 50.2461C43.7826 52.2287 44.7693 53.0837 46.3233 53.0837C47.0746 53.1234 47.8221 52.9517 48.4816 52.5881L48.5063 50.2461ZM43.6346 46.2809C43.6346 47.9413 42.0066 50.4196 38.06 50.4196C36.2223 50.4196 34.5326 49.7133 34.5326 47.7307C34.5326 45.5002 36.2223 44.7939 38.2326 44.4346C40.243 44.0752 42.5 44.0505 43.6593 43.1955L43.6346 46.2809ZM25.1346 52.6624H28.1316V27.3594H25.11L25.1346 52.6624ZM4.16797 52.6624H21.669V49.8248H7.52264V41.0766H20.6083V38.2389H7.52264V30.197H21.558V27.3594H4.1803L4.16797 52.6624Z" fill="black"/>
<path d="M78.9336 14.9922C78.967 13.9838 78.9423 12.9743 78.8596 11.9688C69.8933 12.7246 57.3256 18.5114 45.6706 27.9288C44.4003 28.9944 43.0929 30.0724 41.9336 31.1629H42.6736L43.3149 30.6301C55.5743 20.717 68.9683 14.9674 78.0579 14.9674L78.9336 14.9922Z" fill="#0C2074"/>
<path d="M88.7988 14.5837C87.3441 13.2107 85.4898 12.3421 83.5078 12.1055C83.653 13.3975 83.7312 14.6962 83.7421 15.9963C84.7628 16.4142 85.6897 17.0336 86.4678 17.8179C87.3399 18.7365 88.0007 19.8363 88.4034 21.0396C88.8062 22.2429 88.9412 23.5203 88.7988 24.7818C88.6248 26.9842 88.0958 29.1437 87.2325 31.1757H87.7135C89.5163 28.1496 90.648 24.7683 91.0311 21.2626C91.1658 20.0532 91.0359 18.8288 90.6503 17.6751C90.2647 16.5214 89.6328 15.4664 88.7988 14.5837Z" fill="#0C2074"/>
<path d="M81.4874 7.01468C80.6857 4.64794 79.5264 3.44599 78.0217 3.43359C75.2714 3.43359 71.8551 7.52273 68.4141 14.5858L70.1654 13.9662C72.5457 9.91425 74.8151 7.51033 76.4677 7.51033H76.6157C77.5284 7.59707 78.1944 8.47685 78.5891 10.1497C79.6004 14.4247 78.478 22.826 75.9991 31.6734C77.729 31.7515 79.4175 32.2307 80.9324 33.0736C82.8934 22.0329 83.2264 12.1447 81.4874 7.01468Z" fill="#0075C9"/>
<path d="M66.5033 18.7474C65.7469 20.6061 64.9822 22.6176 64.2093 24.782C63.4693 26.8885 62.7663 29.0446 62.125 31.2131H62.902C63.9344 27.8698 65.1364 24.5818 66.5033 21.362C66.9597 20.3087 67.416 19.3174 67.8723 18.3633L66.5033 18.7474Z" fill="#0075C9"/>
<path d="M106.474 49.9239C106.742 50.2013 106.891 50.5723 106.891 50.9585C106.891 51.3448 106.742 51.7158 106.474 51.9932C106.269 52.1921 106.011 52.3262 105.731 52.379C105.451 52.4317 105.162 52.4007 104.899 52.2899C104.636 52.1791 104.412 51.9933 104.254 51.7555C104.095 51.5178 104.009 51.2385 104.007 50.9524C104.007 50.5667 104.159 50.1967 104.429 49.9228C104.7 49.6489 105.067 49.4934 105.45 49.4902C105.641 49.4895 105.83 49.5276 106.006 49.6021C106.182 49.6767 106.341 49.7861 106.474 49.9239ZM106.634 49.7628C106.475 49.5971 106.283 49.4672 106.071 49.3817C105.858 49.2963 105.63 49.2572 105.401 49.2671C104.957 49.2704 104.532 49.449 104.219 49.7643C103.905 50.0797 103.727 50.5064 103.724 50.9524C103.712 51.2919 103.802 51.627 103.984 51.9139C104.165 52.2008 104.428 52.426 104.738 52.5599C105.049 52.6939 105.393 52.7304 105.725 52.6647C106.056 52.5989 106.361 52.434 106.597 52.1915C106.763 52.0324 106.893 51.8394 106.978 51.6257C107.063 51.4119 107.101 51.1823 107.091 50.9524C107.101 50.7331 107.065 50.5142 106.987 50.3095C106.908 50.1047 106.788 49.9186 106.634 49.7628ZM105.697 50.878C105.591 50.8947 105.483 50.8947 105.376 50.878H105.093V50.2089H105.364C105.498 50.203 105.633 50.224 105.759 50.2708C105.802 50.3003 105.837 50.3414 105.859 50.3896C105.881 50.4377 105.889 50.491 105.882 50.5434C105.898 50.6123 105.888 50.6847 105.854 50.7466C105.82 50.8084 105.764 50.8553 105.697 50.878ZM104.76 51.8817H105.093V51.1506H105.339C105.461 51.118 105.588 51.118 105.709 51.1506C105.772 51.1996 105.821 51.2643 105.851 51.3382C105.882 51.4121 105.892 51.4927 105.882 51.5719V51.7826H106.19C106.188 51.7496 106.188 51.7164 106.19 51.6834V51.4108C106.184 51.3064 106.145 51.2067 106.079 51.1258C106.042 51.0735 105.995 51.0298 105.939 50.9977C105.884 50.9656 105.822 50.9459 105.759 50.94C105.861 50.9611 105.967 50.9569 106.067 50.9276C106.128 50.8879 106.178 50.8325 106.21 50.7671C106.243 50.7017 106.257 50.6288 106.252 50.5558C106.26 50.4574 106.237 50.3589 106.186 50.2744C106.135 50.1899 106.059 50.1236 105.968 50.085C105.804 50.0388 105.633 50.0179 105.463 50.023H104.809L104.76 51.8817Z" fill="black"/>
</svg>