<svg width="95" height="22" viewBox="0 0 95 22" fill="none" xmlns="http://www.w3.org/2000/svg">
<path d="M0.228516 11.6465L10.7148 16.8281L11.002 15.1465L2.55273 11.2773L2.04688 11.0586L2.79883 10.7988L12.4648 6.91602L12.7246 5.15234L0.460938 10.3066L0.228516 11.6465ZM15.3633 20H20.1484C21.0052 19.9909 21.8164 19.8678 22.582 19.6309C23.3568 19.3939 24.0723 19.0658 24.7285 18.6465C25.3483 18.2546 25.9225 17.7852 26.4512 17.2383C26.9798 16.6914 27.4447 16.0944 27.8457 15.4473C28.2559 14.7819 28.5977 14.0755 28.8711 13.3281C29.1536 12.5807 29.3587 11.8105 29.4863 11.0176L29.8008 9.07617C29.901 8.35612 29.9284 7.64518 29.8828 6.94336C29.8464 6.23242 29.737 5.55339 29.5547 4.90625C29.3542 4.25 29.0807 3.63477 28.7344 3.06055C28.388 2.48633 27.9642 1.98958 27.4629 1.57031C26.9434 1.1237 26.3418 0.772786 25.6582 0.517578C24.9837 0.253255 24.2227 0.111979 23.375 0.09375H18.8086L15.3633 20ZM20.1895 1.50195H23.3477C24.0404 1.5293 24.651 1.65234 25.1797 1.87109C25.7174 2.08984 26.1777 2.38151 26.5605 2.74609C26.9342 3.11068 27.2441 3.52539 27.4902 3.99023C27.7454 4.44596 27.9368 4.93815 28.0645 5.4668C28.2103 6.02279 28.2923 6.60612 28.3105 7.2168C28.3288 7.82747 28.2923 8.43359 28.2012 9.03516L27.873 11.0176C27.7546 11.6647 27.5814 12.2982 27.3535 12.918C27.1348 13.5378 26.8613 14.1257 26.5332 14.6816C26.196 15.2376 25.8086 15.7526 25.3711 16.2266C24.9427 16.7005 24.4642 17.1061 23.9355 17.4434C23.3978 17.7988 22.8145 18.0768 22.1855 18.2773C21.5566 18.4779 20.8867 18.5872 20.1758 18.6055L17.2227 18.5918L20.1895 1.50195ZM38.2227 20.2734C39.3164 20.2826 40.3555 20.0638 41.3398 19.6172C42.3333 19.1706 43.1764 18.5234 43.8691 17.6758L42.9121 16.8828C42.2832 17.4935 41.5859 17.9811 40.8203 18.3457C40.0547 18.7103 39.2253 18.8835 38.332 18.8652C37.5573 18.8561 36.8874 18.6829 36.3223 18.3457C35.7572 17.9993 35.306 17.5573 34.9688 17.0195C34.5951 16.3997 34.3581 15.7344 34.2578 15.0234C34.1576 14.3125 34.1849 13.5423 34.3398 12.7129H45.0449L45.1953 11.7148C45.3138 10.8672 45.3001 10.0378 45.1543 9.22656C45.0176 8.41536 44.7487 7.69531 44.3477 7.06641C43.9466 6.42839 43.4089 5.91797 42.7344 5.53516C42.069 5.14323 41.2624 4.94271 40.3145 4.93359C39.6309 4.92448 38.9792 5.01562 38.3594 5.20703C37.7487 5.39844 37.179 5.67188 36.6504 6.02734C36.1217 6.3737 35.6387 6.78841 35.2012 7.27148C34.7637 7.74544 34.3763 8.26042 34.0391 8.81641C33.7018 9.38151 33.4238 9.97396 33.2051 10.5938C32.9863 11.2044 32.8314 11.8197 32.7402 12.4395L32.6582 13.041C32.5488 13.9434 32.5853 14.8184 32.7676 15.666C32.959 16.5046 33.2734 17.2474 33.7109 17.8945C34.1849 18.5964 34.8001 19.166 35.5566 19.6035C36.3132 20.041 37.2018 20.2643 38.2227 20.2734ZM40.2598 6.3418C40.8978 6.35091 41.4538 6.49674 41.9277 6.7793C42.4017 7.05273 42.7891 7.41276 43.0898 7.85938C43.3815 8.30599 43.5775 8.81641 43.6777 9.39062C43.778 9.95573 43.7734 10.5299 43.6641 11.1133L43.623 11.3184L34.5586 11.3047C34.7773 10.6849 35.0599 10.0742 35.4062 9.47266C35.7617 8.87109 36.1764 8.33789 36.6504 7.87305C37.1243 7.4082 37.6621 7.03451 38.2637 6.75195C38.8652 6.46029 39.5306 6.32357 40.2598 6.3418ZM53.5352 20H54.8477L63.1875 5.20703H61.4512L54.8066 17.2793L54.4102 18.0859L54.2871 17.2793L51.3613 5.19336H49.7754L53.5352 20ZM67.2617 21.6953L79.0605 0.09375H77.4883L65.6895 21.6953H67.2617ZM81.7129 16.8691L94.2227 11.6875L94.4551 10.3477L83.7227 5.17969L83.4629 6.83398L92.0352 10.7031L92.6367 10.9492L91.748 11.25L82.0273 15.0918L81.7129 16.8691Z" fill="#0B79D0"/>
</svg>